<svg width="32" height="32" viewBox="0 0 32 32" fill="none" xmlns="http://www.w3.org/2000/svg">
<path d="M12.7493 4C11.0672 3.99949 9.41214 4.42331 7.93731 5.23224C6.46247 6.04117 5.21552 7.20905 4.31186 8.62782C3.4082 10.0466 2.87703 11.6704 2.76752 13.3489C2.658 15.0275 2.97367 16.7065 3.68531 18.2307L2.71998 22.02C2.64903 22.2983 2.65122 22.5903 2.72634 22.8676C2.80146 23.1448 2.94696 23.3979 3.14873 23.6024C3.3505 23.8068 3.60168 23.9557 3.87792 24.0344C4.15415 24.1132 4.44605 24.1193 4.72531 24.052C5.72531 23.812 7.26265 23.4427 8.63198 23.116C9.9916 23.7291 11.4712 24.0303 12.9623 23.9976C14.4534 23.9649 15.9183 23.599 17.2497 22.9268C18.5811 22.2546 19.7453 21.2931 20.657 20.1127C21.5687 18.9323 22.2048 17.563 22.5187 16.1049C22.8327 14.6469 22.8165 13.1371 22.4714 11.6861C22.1262 10.2351 21.4609 8.87966 20.5242 7.71909C19.5874 6.55852 18.4029 5.62219 17.0574 4.97868C15.7119 4.33517 14.2394 4.00078 12.748 4M4.74798 14C4.74851 12.2604 5.31605 10.5684 6.36462 9.18031C7.41319 7.79225 8.88563 6.7838 10.5588 6.30777C12.232 5.83174 14.0148 5.91408 15.637 6.5423C17.2592 7.17052 18.6324 8.31039 19.5486 9.78919C20.4648 11.268 20.874 13.0051 20.7141 14.7374C20.5543 16.4696 19.8342 18.1026 18.663 19.3888C17.4917 20.675 15.9331 21.5444 14.2234 21.8652C12.5136 22.186 10.7458 21.9408 9.18798 21.1667L8.86265 21.0053L8.51065 21.0893C7.27998 21.3827 5.85731 21.7227 4.79331 21.9787L5.71331 18.368L5.80665 18L5.63331 17.6627C5.04936 16.5302 4.74575 15.2741 4.74798 14ZM19.4146 28C16.8922 28.0036 14.4622 27.0507 12.6146 25.3333H12.748C13.7053 25.3333 14.6346 25.2147 15.5213 24.9907C16.6746 25.6333 18.0013 26 19.4146 26C20.6946 26 21.9026 25.7 22.9746 25.1667L23.2986 25.0053L23.6506 25.0893C24.88 25.3827 26.272 25.6827 27.304 25.9027C27.0706 24.9013 26.752 23.5613 26.448 22.368L26.3546 22L26.528 21.6627C27.1124 20.5303 27.4165 19.2743 27.4146 18C27.4153 16.6625 27.0804 15.3462 26.4405 14.1717C25.8006 12.9971 24.8762 12.002 23.752 11.2773C23.5169 10.325 23.1583 9.4074 22.6853 8.548C24.009 9.00634 25.2216 9.73754 26.2447 10.6943C27.2678 11.651 28.0787 12.8119 28.6247 14.1019C29.1706 15.3918 29.4397 16.7821 29.4143 18.1826C29.3889 19.5831 29.0697 20.9627 28.4773 22.232C28.8146 23.576 29.156 25.032 29.372 25.9693C29.4353 26.2409 29.4291 26.524 29.3541 26.7926C29.279 27.0611 29.1374 27.3064 28.9425 27.5058C28.7475 27.7051 28.5054 27.8521 28.2386 27.9331C27.9718 28.0142 27.6889 28.0266 27.416 27.9693C26.1182 27.6995 24.8234 27.415 23.532 27.116C22.2381 27.7005 20.8344 28.0019 19.4146 28Z" fill="#FF3701"/>
</svg>
