<svg width="32" height="32" viewBox="0 0 32 32" fill="none" xmlns="http://www.w3.org/2000/svg">
<path fill-rule="evenodd" clip-rule="evenodd" d="M10.6667 1.66663C11.219 1.66663 11.6667 2.11434 11.6667 2.66663V4.33329H20.3333V2.66663C20.3333 2.11434 20.781 1.66663 21.3333 1.66663C21.8856 1.66663 22.3333 2.11434 22.3333 2.66663V4.33329H25.3333C26.3058 4.33329 27.2384 4.7196 27.9261 5.40723C28.6137 6.09487 29 7.0275 29 7.99996V9.99996C29 10.5522 28.5523 11 28 11C27.4477 11 27 10.5522 27 9.99996V7.99996C27 7.55793 26.8244 7.13401 26.5118 6.82145C26.1993 6.50889 25.7754 6.33329 25.3333 6.33329H22.3333V7.99996C22.3333 8.55224 21.8856 8.99996 21.3333 8.99996C20.781 8.99996 20.3333 8.55224 20.3333 7.99996V6.33329H11.6667V7.99996C11.6667 8.55224 11.219 8.99996 10.6667 8.99996C10.1144 8.99996 9.66667 8.55224 9.66667 7.99996V6.33329H6.66667C6.22464 6.33329 5.80072 6.50889 5.48816 6.82145C5.17559 7.13401 5 7.55793 5 7.99996V12.3333H10.6667C11.219 12.3333 11.6667 12.781 11.6667 13.3333C11.6667 13.8856 11.219 14.3333 10.6667 14.3333H5V26.6666C5 27.1087 5.17559 27.5326 5.48816 27.8451C5.80072 28.1577 6.22464 28.3333 6.66667 28.3333H11.3333C11.8856 28.3333 12.3333 28.781 12.3333 29.3333C12.3333 29.8856 11.8856 30.3333 11.3333 30.3333H6.66667C5.69421 30.3333 4.76157 29.947 4.07394 29.2593C3.38631 28.5717 3 27.6391 3 26.6666V7.99996C3 7.0275 3.38631 6.09487 4.07394 5.40723C4.76158 4.7196 5.69421 4.33329 6.66667 4.33329H9.66667V2.66663C9.66667 2.11434 10.1144 1.66663 10.6667 1.66663ZM21.3333 14.3333C17.4673 14.3333 14.3333 17.4673 14.3333 21.3333C14.3333 25.1993 17.4673 28.3333 21.3333 28.3333C25.1993 28.3333 28.3333 25.1993 28.3333 21.3333C28.3333 17.4673 25.1993 14.3333 21.3333 14.3333ZM12.3333 21.3333C12.3333 16.3627 16.3628 12.3333 21.3333 12.3333C26.3039 12.3333 30.3333 16.3627 30.3333 21.3333C30.3333 26.3039 26.3039 30.3333 21.3333 30.3333C16.3628 30.3333 12.3333 26.3039 12.3333 21.3333ZM21.3333 17.6666C21.8856 17.6666 22.3333 18.1143 22.3333 18.6666V21.2527L23.958 22.5524C24.3893 22.8974 24.4592 23.5267 24.1142 23.958C23.7692 24.3892 23.1399 24.4592 22.7086 24.1142L20.7086 22.5142C20.4714 22.3244 20.3333 22.0371 20.3333 21.7333V18.6666C20.3333 18.1143 20.781 17.6666 21.3333 17.6666Z" fill="#FF3701"/>
</svg>
