<svg width="32" height="32" viewBox="0 0 32 32" fill="none" xmlns="http://www.w3.org/2000/svg">
<path fill-rule="evenodd" clip-rule="evenodd" d="M22.2347 3.50406C18.0398 2.56635 13.6896 2.56635 9.49466 3.50406L9.04266 3.60406C7.86269 3.86788 6.77894 4.45364 5.91182 5.29628C5.0447 6.13892 4.42815 7.20545 4.13066 8.37739C3.06733 12.5674 3.06733 16.9567 4.13066 21.1467C4.41436 22.2644 4.98854 23.2872 5.79497 24.1114C6.60141 24.9357 7.61144 25.532 8.72266 25.8401L9.34266 29.5414C9.36246 29.6589 9.41339 29.769 9.49018 29.8602C9.56696 29.9513 9.66677 30.0202 9.77923 30.0597C9.89169 30.0992 10.0127 30.1078 10.1296 30.0847C10.2465 30.0615 10.3551 30.0074 10.444 29.9281L14.0853 26.6707C16.8188 26.8375 19.5621 26.6189 22.2347 26.0214L22.688 25.9214C23.868 25.6576 24.9517 25.0718 25.8188 24.2292C26.686 23.3865 27.3025 22.32 27.6 21.1481C28.6632 16.958 28.6632 12.5688 27.6 8.37873C27.3024 7.20662 26.6857 6.13997 25.8183 5.29731C24.9509 4.45465 23.8669 3.86899 22.6867 3.60539L22.2347 3.50406ZM10.62 8.26939C10.3722 8.23333 10.1195 8.2832 9.904 8.41073H9.88533C9.38533 8.70406 8.93466 9.07339 8.55066 9.50806C8.23066 9.87739 8.05733 10.2507 8.012 10.6107C7.98533 10.8241 8.004 11.0401 8.06666 11.2441L8.09066 11.2574C8.45066 12.3147 8.92 13.3321 9.49333 14.2894C10.2326 15.634 11.1423 16.8777 12.2 17.9894L12.232 18.0347L12.2827 18.0721L12.3133 18.1081L12.3507 18.1401C13.4663 19.2009 14.7128 20.115 16.06 20.8601C17.6 21.6987 18.5347 22.0947 19.096 22.2601V22.2681C19.26 22.3187 19.4093 22.3414 19.56 22.3414C20.0381 22.3061 20.4905 22.1117 20.8453 21.7894C21.2787 21.4054 21.6453 20.9534 21.9307 20.4507V20.4414C22.1987 19.9347 22.108 19.4574 21.7213 19.1334C20.9447 18.4548 20.1048 17.852 19.2133 17.3334C18.616 17.0094 18.0093 17.2054 17.764 17.5334L17.24 18.1947C16.9707 18.5227 16.4827 18.4774 16.4827 18.4774L16.4693 18.4854C12.828 17.5561 11.856 13.8694 11.856 13.8694C11.856 13.8694 11.8107 13.3681 12.148 13.1121L12.804 12.5841C13.1187 12.3281 13.3373 11.7227 13 11.1254C12.4848 10.2331 11.8833 9.3935 11.204 8.61873C11.0558 8.43639 10.8481 8.3122 10.6173 8.26806L10.62 8.26939ZM16.772 6.66673C16.5952 6.66673 16.4256 6.73697 16.3006 6.86199C16.1756 6.98701 16.1053 7.15658 16.1053 7.33339C16.1053 7.5102 16.1756 7.67977 16.3006 7.8048C16.4256 7.92982 16.5952 8.00006 16.772 8.00006C18.4587 8.00006 19.8587 8.55073 20.9667 9.60673C21.536 10.1841 21.98 10.8681 22.2707 11.6174C22.5627 12.3681 22.696 13.1694 22.6613 13.9721C22.6577 14.0596 22.6713 14.147 22.7014 14.2293C22.7315 14.3116 22.7775 14.3872 22.8368 14.4517C22.9566 14.5819 23.1232 14.6593 23.3 14.6667C23.4768 14.6742 23.6493 14.611 23.7796 14.4913C23.9099 14.3715 23.9872 14.2049 23.9947 14.0281C24.036 13.0407 23.8721 12.0555 23.5133 11.1347C23.153 10.2096 22.6066 9.36822 21.908 8.66273L21.8947 8.64939C20.52 7.33606 18.78 6.66673 16.772 6.66673ZM16.7267 8.85873C16.5499 8.85873 16.3803 8.92897 16.2553 9.05399C16.1302 9.17901 16.06 9.34858 16.06 9.52539C16.06 9.70221 16.1302 9.87177 16.2553 9.9968C16.3803 10.1218 16.5499 10.1921 16.7267 10.1921H16.7493C17.9653 10.2787 18.8507 10.6841 19.4707 11.3494C20.1067 12.0347 20.436 12.8867 20.4107 13.9401C20.4066 14.1169 20.4729 14.2881 20.5951 14.416C20.7172 14.5439 20.8852 14.618 21.062 14.6221C21.2388 14.6261 21.41 14.5598 21.5379 14.4376C21.6658 14.3155 21.7399 14.1475 21.744 13.9707C21.776 12.5881 21.3307 11.3947 20.448 10.4427V10.4401C19.5453 9.47206 18.3067 8.96006 16.816 8.86006L16.7933 8.85739L16.7267 8.85873ZM16.7013 11.0921C16.6121 11.0842 16.5222 11.0944 16.437 11.122C16.3518 11.1496 16.2731 11.1942 16.2055 11.2529C16.1379 11.3117 16.0828 11.3834 16.0435 11.4639C16.0043 11.5444 15.9816 11.632 15.977 11.7215C15.9723 11.8109 15.9857 11.9004 16.0164 11.9845C16.0471 12.0687 16.0944 12.1458 16.1555 12.2112C16.2167 12.2767 16.2904 12.3291 16.3722 12.3655C16.4541 12.4018 16.5424 12.4213 16.632 12.4227C17.1893 12.4521 17.5453 12.6201 17.7693 12.8454C17.9947 13.0721 18.1627 13.4361 18.1933 14.0054C18.195 14.0949 18.2147 14.1831 18.2511 14.2648C18.2876 14.3465 18.3402 14.42 18.4057 14.481C18.4712 14.5419 18.5483 14.5891 18.6324 14.6196C18.7165 14.6502 18.8059 14.6635 18.8952 14.6587C18.9846 14.654 19.0721 14.6313 19.1525 14.592C19.2329 14.5527 19.3046 14.4977 19.3632 14.4301C19.4219 14.3626 19.4664 14.2839 19.494 14.1988C19.5216 14.1137 19.5318 14.0239 19.524 13.9347C19.4813 13.1347 19.2307 12.4281 18.7173 11.9081C18.2013 11.3881 17.4987 11.1347 16.7013 11.0921Z" fill="#FF3701"/>
</svg>
