<svg width="32" height="32" viewBox="0 0 32 32" fill="none" xmlns="http://www.w3.org/2000/svg">
<path d="M8.16667 2.66663C7.41522 2.66663 6.69455 2.96514 6.1632 3.49649C5.63184 4.02784 5.33333 4.74851 5.33333 5.49996V14.444C5.86759 14.232 6.42836 14.0943 7 14.0346V5.49996C7 4.85596 7.52267 4.33329 8.16667 4.33329H16V10.1666C16 10.8297 16.2634 11.4656 16.7322 11.9344C17.2011 12.4032 17.837 12.6666 18.5 12.6666H25V26.5C25 26.8094 24.8771 27.1061 24.6583 27.3249C24.4395 27.5437 24.1428 27.6666 23.8333 27.6666H12.6667V29.3333H23.8333C24.5848 29.3333 25.3054 29.0348 25.8368 28.5034C26.3682 27.9721 26.6667 27.2514 26.6667 26.5V12.276C26.6665 11.8784 26.5085 11.4971 26.2273 11.216L18.118 3.10529C17.8366 2.82423 17.4551 2.66645 17.0573 2.66663H8.16667ZM23.6547 11H18.5C18.04 11 17.6667 10.6266 17.6667 10.1666V5.01196L23.6547 11ZM5.10133 30.5333C4.99786 30.6086 4.87556 30.6538 4.74798 30.6639C4.6204 30.674 4.49251 30.6486 4.37849 30.5904C4.26447 30.5323 4.16875 30.4438 4.10195 30.3346C4.03515 30.2255 3.99986 30.0999 4 29.972V25.4986C5.07035 26.2611 6.35249 26.6695 7.66667 26.6666C9.03333 26.6666 10.2987 26.2333 11.3333 25.4973V29.9706C11.3335 30.0986 11.2982 30.2241 11.2314 30.3333C11.1646 30.4424 11.0689 30.531 10.9548 30.5891C10.8408 30.6472 10.7129 30.6726 10.5854 30.6626C10.4578 30.6525 10.3355 30.6073 10.232 30.532L7.66667 28.6666L5.10133 30.5333Z" fill="#FF3701"/>
<path fill-rule="evenodd" clip-rule="evenodd" d="M7.75 23.75C9.683 23.75 11.25 22.183 11.25 20.25C11.25 18.317 9.683 16.75 7.75 16.75C5.817 16.75 4.25 18.317 4.25 20.25C4.25 22.183 5.817 23.75 7.75 23.75ZM7.75 25.5C10.6495 25.5 13 23.1495 13 20.25C13 17.3505 10.6495 15 7.75 15C4.85051 15 2.5 17.3505 2.5 20.25C2.5 23.1495 4.85051 25.5 7.75 25.5Z" fill="#FF3701"/>
</svg>
