<svg width="20" height="20" viewBox="0 0 20 20" fill="none" xmlns="http://www.w3.org/2000/svg">
<path d="M14.7558 1.91074C14.5996 1.75451 14.3876 1.66675 14.1667 1.66675C13.9457 1.66675 13.7338 1.75451 13.5775 1.91074L11.6667 3.82157L10.5892 2.74407C10.4329 2.58784 10.221 2.50008 10 2.50008C9.77903 2.50008 9.56711 2.58784 9.41083 2.74407L4.41083 7.74407C4.25904 7.90124 4.17504 8.11174 4.17694 8.33024C4.17884 8.54874 4.26648 8.75775 4.42098 8.91225C4.57549 9.06676 4.7845 9.1544 5.003 9.1563C5.2215 9.1582 5.432 9.0742 5.58917 8.9224L10 4.51157L10.4883 4.9999L8.5775 6.91074L2.74417 12.7441C2.58788 12.9003 2.50005 13.1122 2.5 13.3332V16.6666C2.5 16.8876 2.5878 17.0995 2.74408 17.2558C2.90036 17.4121 3.11232 17.4999 3.33333 17.4999H6.66667C6.88766 17.4999 7.09959 17.412 7.25583 17.2557L13.0892 11.4224L18.0892 6.4224C18.2454 6.26613 18.3332 6.05421 18.3332 5.83324C18.3332 5.61227 18.2454 5.40034 18.0892 5.24407L14.7558 1.91074ZM12.2558 5.58907L14.1667 3.67824L16.3217 5.83324L12.5 9.6549L10.345 7.4999L12.2558 5.58907ZM4.16667 13.6782L9.16667 8.67824L11.3217 10.8332L6.32167 15.8332H4.16667V13.6782Z" fill="#353535"/>
</svg>
