<svg width="20" height="20" viewBox="0 0 20 20" fill="none" xmlns="http://www.w3.org/2000/svg">
<g clip-path="url(#clip0_2205_3221)">
<path d="M8.33301 12.23V12.1784C8.33301 10.0884 10.013 8.33002 12.2938 7.81752C11.9905 5.89919 9.96551 4.33335 7.41634 4.33335C4.64967 4.33335 2.49967 6.17752 2.49967 8.31669C2.49967 9.12419 2.79967 9.90002 3.36634 10.565C3.39301 10.5967 3.43551 10.6434 3.49301 10.7025C3.98293 11.206 4.27874 11.8667 4.32801 12.5675C4.92309 12.2235 5.61798 12.0935 6.29717 12.1992C6.43551 12.2209 6.54884 12.2375 6.63467 12.2492C7.19891 12.3225 7.77066 12.3166 8.33301 12.23ZM8.71384 13.8559C7.95574 13.986 7.18237 14.0015 6.41967 13.9017C6.29334 13.8846 6.16722 13.866 6.04134 13.8459C5.72991 13.7973 5.41132 13.8599 5.14134 14.0225L3.55467 14.9792C3.43248 15.0545 3.28937 15.0887 3.14634 15.0767C3.05983 15.0702 2.97547 15.0466 2.89808 15.0074C2.82069 14.9682 2.7518 14.9141 2.69536 14.8482C2.63892 14.7823 2.59605 14.706 2.56919 14.6235C2.54233 14.541 2.53201 14.454 2.53884 14.3675L2.66384 12.8834C2.67942 12.6972 2.65481 12.5098 2.5917 12.334C2.52858 12.1582 2.42842 11.998 2.29801 11.8642C2.22874 11.7936 2.16176 11.7208 2.09717 11.6459C1.30217 10.7125 0.833008 9.56085 0.833008 8.31585C0.833008 5.19585 3.78051 2.66669 7.41634 2.66669C10.7997 2.66669 13.5855 4.85585 13.958 7.67335C16.768 7.80085 18.9997 9.76919 18.9997 12.1784C18.9997 13.1725 18.6197 14.0917 17.9755 14.8367C17.933 14.8867 17.8788 14.945 17.813 15.0117C17.7077 15.1177 17.6266 15.2454 17.5754 15.3858C17.5242 15.5262 17.504 15.6761 17.5163 15.825L17.6172 17.0109C17.6223 17.0804 17.6136 17.1502 17.5916 17.2164C17.5696 17.2826 17.5348 17.3437 17.4891 17.3964C17.4434 17.449 17.3878 17.4921 17.3254 17.5232C17.263 17.5543 17.1951 17.5728 17.1255 17.5775C17.0097 17.587 16.8939 17.5596 16.7947 17.4992L15.5088 16.735C15.2896 16.6053 15.0323 16.5555 14.7805 16.5942C14.658 16.6134 14.5555 16.6275 14.4738 16.6384C14.2105 16.6717 13.9405 16.69 13.6663 16.69C11.4213 16.69 9.50134 15.5167 8.71384 13.8559ZM14.528 14.9475C14.9983 14.8751 15.4793 14.9251 15.9247 15.0925C16.0415 14.6199 16.2836 14.1875 16.6255 13.8409C16.6672 13.7992 16.698 13.7659 16.7138 13.7475C17.1213 13.2767 17.333 12.7367 17.333 12.1784C17.333 10.675 15.7472 9.33335 13.6663 9.33335C11.5855 9.33335 9.99967 10.675 9.99967 12.1784C9.99967 13.6817 11.5855 15.0234 13.6663 15.0234C13.8672 15.0234 14.0663 15.01 14.2613 14.985C14.328 14.9767 14.418 14.965 14.528 14.9475Z" fill="#353535"/>
</g>
<defs>
<clipPath id="clip0_2205_3221">
<rect width="20" height="20" fill="white"/>
</clipPath>
</defs>
</svg>
