<svg width="20" height="20" viewBox="0 0 20 20" fill="none" xmlns="http://www.w3.org/2000/svg">
<path d="M12.5003 1.6665H7.50033C7.04009 1.6665 6.66699 2.0396 6.66699 2.49984V4.1665C6.66699 4.62674 7.04009 4.99984 7.50033 4.99984H12.5003C12.9606 4.99984 13.3337 4.62674 13.3337 4.1665V2.49984C13.3337 2.0396 12.9606 1.6665 12.5003 1.6665Z" stroke="#353535" stroke-width="2" stroke-linecap="round" stroke-linejoin="round"/>
<path d="M6.66634 3.3335H4.99967C4.55765 3.3335 4.13372 3.50909 3.82116 3.82165C3.5086 4.13421 3.33301 4.55814 3.33301 5.00016V16.6668C3.33301 17.1089 3.5086 17.5328 3.82116 17.8453C4.13372 18.1579 4.55765 18.3335 4.99967 18.3335H14.9997C15.4417 18.3335 15.8656 18.1579 16.1782 17.8453C16.4907 17.5328 16.6663 17.1089 16.6663 16.6668V16.2502" stroke="#353535" stroke-width="2" stroke-linecap="round" stroke-linejoin="round"/>
<path d="M13.333 3.3335H14.9997C15.2919 3.3338 15.579 3.41095 15.832 3.55721C16.0851 3.70348 16.2952 3.91371 16.4413 4.16683" stroke="#353535" stroke-width="2" stroke-linecap="round" stroke-linejoin="round"/>
<path d="M6.66699 15H7.50033" stroke="#353535" stroke-width="2" stroke-linecap="round" stroke-linejoin="round"/>
<path d="M15.333 8.00019C15.6645 7.66867 16.1142 7.48242 16.583 7.48242C17.0518 7.48242 17.5015 7.66867 17.833 8.00019C18.1645 8.33171 18.3508 8.78135 18.3508 9.25019C18.3508 9.71903 18.1645 10.1687 17.833 10.5002L14.1663 14.1669L10.833 15.0002L11.6663 11.6669L15.333 8.00019Z" stroke="#353535" stroke-width="2" stroke-linecap="round" stroke-linejoin="round"/>
</svg>
