<svg width="20" height="20" viewBox="0 0 20 20" fill="none" xmlns="http://www.w3.org/2000/svg">
<path d="M13.1497 10.6002C13.2669 10.4831 13.3329 10.3242 13.333 10.1585V9.84187C13.3311 9.67652 13.2654 9.5183 13.1497 9.4002L8.86634 5.1252C8.7881 5.04632 8.68161 5.00195 8.57051 5.00195C8.45941 5.00195 8.35291 5.04632 8.27467 5.1252L7.68301 5.71687C7.60462 5.79367 7.56045 5.89879 7.56045 6.00854C7.56045 6.11828 7.60462 6.2234 7.68301 6.3002L11.3913 10.0002L7.68301 13.7002C7.60413 13.7784 7.55976 13.8849 7.55976 13.996C7.55976 14.1071 7.60413 14.2136 7.68301 14.2919L8.27467 14.8752C8.35291 14.9541 8.45941 14.9985 8.57051 14.9985C8.68161 14.9985 8.7881 14.9541 8.86634 14.8752L13.1497 10.6002Z" fill="#353535"/>
</svg>
