<svg width="20" height="20" viewBox="0 0 20 20" fill="none" xmlns="http://www.w3.org/2000/svg">
<path d="M6.85033 10.6002C6.73308 10.4831 6.66714 10.3242 6.66699 10.1585V9.84187C6.66891 9.67652 6.73459 9.5183 6.85033 9.4002L11.1337 5.1252C11.2119 5.04632 11.3184 5.00195 11.4295 5.00195C11.5406 5.00195 11.6471 5.04632 11.7253 5.1252L12.317 5.71687C12.3954 5.79367 12.4396 5.89879 12.4396 6.00854C12.4396 6.11828 12.3954 6.2234 12.317 6.3002L8.60866 10.0002L12.317 13.7002C12.3959 13.7784 12.4402 13.8849 12.4402 13.996C12.4402 14.1071 12.3959 14.2136 12.317 14.2919L11.7253 14.8752C11.6471 14.9541 11.5406 14.9985 11.4295 14.9985C11.3184 14.9985 11.2119 14.9541 11.1337 14.8752L6.85033 10.6002Z" fill="#808080"/>
</svg>
