<svg width="20" height="20" viewBox="0 0 20 20" fill="none" xmlns="http://www.w3.org/2000/svg">
<g clip-path="url(#clip0_2205_3233)">
<path d="M14.2367 13.1767C15.0203 12.3487 15.5442 11.3092 15.7435 10.1867C15.9428 9.06416 15.8088 7.90785 15.3581 6.86067C14.9074 5.81349 14.1597 4.92133 13.2074 4.29448C12.2551 3.66763 11.1401 3.33356 10 3.33356C8.85994 3.33356 7.74486 3.66763 6.7926 4.29448C5.84034 4.92133 5.09264 5.81349 4.64191 6.86067C4.19119 7.90785 4.0572 9.06416 4.2565 10.1867C4.4558 11.3092 4.97967 12.3487 5.76334 13.1767C6.21306 12.4591 6.8378 11.8675 7.57889 11.4576C8.31999 11.0477 9.1531 10.8329 10 10.8333C10.8469 10.8329 11.68 11.0477 12.4211 11.4576C13.1622 11.8675 13.7869 12.4591 14.2367 13.1767ZM6.9875 14.4042L10 17.4158L13.0125 14.4042C12.7424 13.8338 12.3158 13.3519 11.7825 13.0144C11.2493 12.6769 10.6311 12.4977 10 12.4977C9.3689 12.4977 8.75075 12.6769 8.21747 13.0144C7.68418 13.3519 7.25766 13.8338 6.9875 14.4042ZM10 19.7733L4.69667 14.47C3.64779 13.4211 2.93349 12.0847 2.64411 10.6299C2.35473 9.17504 2.50326 7.66704 3.07092 6.2966C3.63858 4.92616 4.59987 3.75483 5.83324 2.93072C7.0666 2.10661 8.51665 1.66675 10 1.66675C11.4834 1.66675 12.9334 2.10661 14.1668 2.93072C15.4001 3.75483 16.3614 4.92616 16.9291 6.2966C17.4968 7.66704 17.6453 9.17504 17.3559 10.6299C17.0665 12.0847 16.3522 13.4211 15.3033 14.47L10 19.7733ZM10 8.33335C10.221 8.33335 10.433 8.24555 10.5893 8.08927C10.7455 7.93299 10.8333 7.72103 10.8333 7.50002C10.8333 7.279 10.7455 7.06704 10.5893 6.91076C10.433 6.75448 10.221 6.66668 10 6.66668C9.77899 6.66668 9.56703 6.75448 9.41075 6.91076C9.25447 7.06704 9.16667 7.279 9.16667 7.50002C9.16667 7.72103 9.25447 7.93299 9.41075 8.08927C9.56703 8.24555 9.77899 8.33335 10 8.33335ZM10 10C9.33696 10 8.70108 9.73662 8.23224 9.26778C7.7634 8.79894 7.5 8.16306 7.5 7.50002C7.5 6.83698 7.7634 6.20109 8.23224 5.73225C8.70108 5.26341 9.33696 5.00002 10 5.00002C10.663 5.00002 11.2989 5.26341 11.7678 5.73225C12.2366 6.20109 12.5 6.83698 12.5 7.50002C12.5 8.16306 12.2366 8.79894 11.7678 9.26778C11.2989 9.73662 10.663 10 10 10Z" fill="#353535"/>
</g>
<defs>
<clipPath id="clip0_2205_3233">
<rect width="20" height="20" fill="white"/>
</clipPath>
</defs>
</svg>
