<svg width="128" height="56" viewBox="0 0 128 56" fill="none" xmlns="http://www.w3.org/2000/svg">
<path d="M37.36 28.1966C35.0726 27.1285 31.885 28.6338 29.4722 30.2073V23.1274H25.8714V40.8362H29.4722V34.6547C32.2392 32.4559 35.1906 31.0742 35.8344 31.4598C35.8344 31.4598 36.1019 31.7383 36.0908 32.9023L36.0078 40.8343H39.6086L39.6916 32.9355C39.723 29.9324 38.4409 28.6928 37.36 28.191" fill="white"/>
<path d="M51.7723 34.3783C49.0053 36.5771 46.0538 37.9588 45.4119 37.5732C45.4119 37.5732 45.1426 37.2947 45.1555 36.1288L45.2367 28.3813H41.634L41.5529 36.0975C41.5215 39.1006 42.8054 40.3402 43.8864 40.8401C44.4307 41.0896 45.0235 41.2156 45.6222 41.209C47.6255 41.209 49.9258 40.0432 51.7723 38.8387V40.853H55.3731V28.3757H51.7723V34.3783Z" fill="white"/>
<path d="M78.9405 28.1947C76.5424 27.0694 73.1335 28.7923 70.6874 30.4489C70.2336 29.1834 69.4349 28.5286 68.721 28.1947C66.4355 27.1248 63.2479 28.63 60.8369 30.2054V28.3146H57.2343V40.8398H60.8351V34.6528C63.6021 32.4522 66.5535 31.0705 67.1955 31.456C67.1955 31.456 67.463 31.7364 67.4501 32.9004L67.3689 40.8325H70.9697L71.0342 34.6602C73.8012 32.4466 76.7693 31.0613 77.4131 31.4487C77.4131 31.4487 77.6824 31.729 77.6695 32.893L77.5865 40.8251H81.1891L81.2721 33.0498C81.3035 30.0467 80.0196 28.6854 78.9386 28.1799" fill="white"/>
<path d="M93.255 30.2848C90.7924 29.0341 87.092 27.029 84.6054 28.3756C83.5484 28.9493 82.2885 30.2202 82.2885 33.013V33.6956C82.2885 35.389 82.2774 39.3531 85.1607 40.7385C85.7774 41.0325 86.4531 41.182 87.1363 41.1757C88.8131 41.1757 90.8256 40.4544 93.255 38.82V40.8399H96.8577V28.3756H93.255V30.2848ZM86.7212 37.4937C86.1678 37.2263 85.8856 35.4093 85.8893 33.1606V33.013C85.8893 32.6441 85.9317 31.755 86.3209 31.5373C86.5457 31.4323 86.7926 31.3835 87.0404 31.3953C88.481 31.3953 91.1189 33.0149 93.2181 34.2969C88.3851 38.1062 86.8799 37.5638 86.7212 37.4882" fill="white"/>
<path d="M110.311 28.1912C108.023 27.1213 104.836 28.6266 102.423 30.2019V28.3757H98.8296V40.8401H102.43V34.6494C105.197 32.4487 108.149 31.067 108.793 31.4526C108.793 31.4526 109.06 31.7311 109.049 32.8969L108.966 40.8401H112.569L112.65 32.9338C112.681 29.9307 111.399 28.6911 110.318 28.1912" fill="white"/>
<path d="M11.4867 8.41082C9.20117 7.34092 6.0136 8.84616 3.60078 10.4215V3.33984H0V21.0486H3.60078V14.869C6.36777 12.6683 9.31923 11.2885 9.96302 11.6722C9.96302 11.6722 10.2305 11.9526 10.2194 13.1166L10.1456 21.0486H13.7372L13.8202 13.1479C13.8516 10.1448 12.5695 8.90519 11.4867 8.40528" fill="white"/>
<path d="M25.9009 14.5924C23.1339 16.7912 20.1825 18.1729 19.5405 17.7873C19.5405 17.7873 19.2712 17.5088 19.2841 16.3448L19.3653 8.59722H15.7627L15.6796 16.3042C15.6483 19.3073 16.9303 20.5469 18.0131 21.0487C18.5574 21.2982 19.1502 21.4242 19.749 21.4176C21.7523 21.4176 24.0526 20.2536 25.8991 19.0472V21.0487H29.4998V8.58984H25.9009V14.5924Z" fill="white"/>
<path d="M53.0691 8.40706C50.671 7.28181 47.2621 9.00473 44.8161 10.6631C44.3623 9.39579 43.5635 8.74094 42.8497 8.40706C40.5641 7.33715 37.3765 8.8424 34.9656 10.4177V8.5288H31.3593V21.0485H34.96V14.8652C37.727 12.6664 40.6785 11.2829 41.3186 11.6703C41.3186 11.6703 41.5879 11.9488 41.575 13.1128L41.5049 21.0485H45.1057L45.1702 14.8744C47.9372 12.6608 50.9053 11.2773 51.5491 11.6647C51.5491 11.6647 51.8184 11.9433 51.8055 13.1073L51.7169 21.0485H55.3196L55.4007 13.2714C55.4321 10.2683 54.1501 8.9088 53.0691 8.40152" fill="white"/>
<path d="M67.3836 10.4971C64.921 9.24268 61.2206 7.24307 58.734 8.58967C57.677 9.16152 56.4171 10.4343 56.4153 13.2253V13.9097C56.4153 15.6012 56.4061 19.5673 59.2893 20.9526C59.9062 21.246 60.5818 21.3949 61.2649 21.3879C62.9417 21.3879 64.9542 20.6685 67.3836 19.0323V21.0485H70.9863V8.58967H67.3836V10.4971ZM60.8499 17.706C60.2965 17.4385 60.0142 15.6234 60.0179 13.3747V13.2253C60.0179 12.8564 60.0603 11.9672 60.4496 11.7496C60.6745 11.6451 60.9212 11.5964 61.169 11.6075C62.6097 11.6075 65.2475 13.2272 67.3449 14.511C62.5137 18.3203 61.0085 17.7761 60.8499 17.7005" fill="white"/>
<path d="M84.4449 8.40337C82.1594 7.33347 78.9718 8.83871 76.559 10.4141V8.58968H72.9582V21.0485H76.5535V14.8615C79.3205 12.6608 82.2719 11.281 82.9157 11.6666C82.9157 11.6666 83.1832 11.9451 83.1721 13.1091L83.0946 21.0485H86.6991L86.7803 13.1405C86.8116 10.1374 85.5296 8.89774 84.4468 8.39784" fill="white"/>
<path d="M17.6903 31.9653C15.3531 29.5912 13.2336 26.7449 13.1469 25.8779L9.54428 25.8964C9.55131 26.2564 9.6097 26.6135 9.71768 26.9571C10.142 28.3977 11.2967 30.0819 12.4847 31.5576H0V35.1603H12.4884C11.293 36.636 10.142 38.322 9.72137 39.7627C9.61327 40.1055 9.55487 40.4621 9.54797 40.8215L13.1506 40.84C13.2373 39.973 15.3642 37.1285 17.694 34.7526L19.0627 33.358L17.6903 31.9653Z" fill="white"/>
<path d="M3.11746 48.165V51.8876H2.35561V48.8439H0.772893V51.8876H0.0110474V48.165H3.11746Z" fill="white"/>
<path d="M8.56476 48.1652C8.76991 48.163 8.9745 48.1872 9.1735 48.2371C9.34349 48.2776 9.5027 48.3543 9.6402 48.4622C9.7711 48.5701 9.8721 48.7098 9.9335 48.868C10.0071 49.0634 10.0404 49.2718 10.0313 49.4804C10.0306 49.6703 9.99301 49.8583 9.92059 50.0338C9.85506 50.1903 9.75549 50.3302 9.62913 50.4433C9.4992 50.5572 9.34726 50.6433 9.18272 50.696C8.99977 50.7549 8.80859 50.7842 8.61641 50.7827H7.89699V51.8895H7.1333V48.1652H8.56476ZM8.56476 50.115C8.65572 50.1159 8.74637 50.1041 8.83408 50.0799C8.91412 50.0559 8.98869 50.0164 9.05359 49.9637C9.11788 49.9101 9.17006 49.8435 9.2067 49.7682C9.24728 49.6828 9.26869 49.5897 9.26942 49.4952C9.28388 49.4025 9.27454 49.3076 9.24227 49.2195C9.21 49.1314 9.15587 49.053 9.08495 48.9916C8.9324 48.8867 8.74964 48.8349 8.56476 48.844H7.89699V50.115H8.56476Z" fill="white"/>
<path d="M14.2168 51.1774L13.9475 51.8876H13.1174L14.5581 48.165H15.4195L16.8399 51.8876H16.0043L15.746 51.1774H14.2168ZM14.4363 50.5041H15.5191L14.9842 48.9748L14.4363 50.5041Z" fill="white"/>
<path d="M20.4554 51.8876V48.1651H22.1156C22.2752 48.164 22.4344 48.1819 22.5897 48.2186C22.7298 48.249 22.8607 48.3122 22.9716 48.403C23.0639 48.4793 23.1398 48.5734 23.1948 48.6797C23.2601 48.8074 23.2918 48.9496 23.287 49.093C23.2933 49.25 23.2617 49.4063 23.1948 49.5486C23.1222 49.6919 23.0077 49.8097 22.8664 49.8862C22.9679 49.9142 23.0626 49.9625 23.145 50.0282C23.2204 50.0891 23.2831 50.1644 23.3294 50.2496C23.3774 50.3348 23.4122 50.4269 23.4327 50.5226C23.4535 50.6226 23.4622 50.7248 23.4586 50.8269C23.4527 50.9906 23.4065 51.1503 23.3239 51.2918C23.246 51.4313 23.1352 51.5498 23.0011 51.6367C22.8461 51.7448 22.6679 51.815 22.4809 51.8415C22.2977 51.8688 22.1127 51.883 21.9275 51.8839L20.4554 51.8876ZM21.8924 49.674C21.9699 49.674 22.0455 49.674 22.123 49.6611C22.1992 49.6523 22.2727 49.6278 22.3388 49.5892C22.3966 49.5535 22.4453 49.5049 22.4809 49.4471C22.5205 49.384 22.5422 49.3113 22.5436 49.2368C22.5495 49.1659 22.5348 49.0948 22.5012 49.0321C22.473 48.9837 22.4338 48.9426 22.3868 48.9122C22.3275 48.8764 22.2604 48.8555 22.1913 48.8513C22.1175 48.8513 22.0419 48.8513 21.9662 48.8513H21.2284V49.6814L21.8924 49.674ZM21.2136 51.2143H21.9072C22.0151 51.2143 22.1228 51.2081 22.23 51.1959C22.3352 51.1878 22.436 51.1507 22.5215 51.0889C22.5776 51.0458 22.6224 50.9897 22.652 50.9254C22.6815 50.8611 22.695 50.7906 22.6912 50.7199C22.6931 50.648 22.6745 50.577 22.6377 50.5152C22.6062 50.4618 22.561 50.4179 22.5067 50.3879C22.4453 50.3497 22.3758 50.3263 22.3038 50.3197C22.2282 50.3197 22.1507 50.3104 22.0695 50.3104H21.2136V51.2143Z" fill="white"/>
<path d="M28.9151 48.1172C29.1774 48.1132 29.438 48.1602 29.6825 48.2555C29.9015 48.3401 30.0992 48.4717 30.2617 48.6411C30.4242 48.8123 30.5497 49.0151 30.6306 49.2369C30.7979 49.7335 30.7979 50.2713 30.6306 50.7679C30.5494 50.9934 30.424 51.2003 30.2617 51.3767C30.0993 51.5515 29.9011 51.6893 29.6806 51.7807C29.4328 51.8798 29.1672 51.9269 28.9003 51.919C28.6344 51.9238 28.3703 51.8749 28.1237 51.7751C27.9066 51.6852 27.7115 51.5493 27.5519 51.3767C27.3918 51.2042 27.2699 50.9999 27.194 50.7772C27.1092 50.5342 27.0674 50.2782 27.0704 50.0209C27.067 49.7588 27.1108 49.4982 27.1996 49.2516C27.2795 49.0272 27.4051 48.8218 27.5685 48.6484C27.7318 48.4778 27.93 48.3444 28.1496 48.2574C28.3939 48.1614 28.6545 48.1138 28.9169 48.1172M27.8544 50.0098C27.8536 50.166 27.876 50.3214 27.9208 50.471C27.9619 50.6103 28.0282 50.741 28.1164 50.8565C28.2032 50.9713 28.3156 51.0641 28.4447 51.1277C28.5897 51.1994 28.7496 51.2361 28.9114 51.2346C29.0689 51.2416 29.2258 51.2106 29.3689 51.1443C29.4991 51.0817 29.6129 50.9895 29.7009 50.8749C29.7904 50.7563 29.8579 50.6226 29.9001 50.4802C29.9464 50.3296 29.9694 50.1728 29.9684 50.0153C29.9683 49.8606 29.9466 49.7066 29.9038 49.5579C29.8628 49.4167 29.7966 49.2842 29.7083 49.1668C29.6219 49.0516 29.5094 48.9587 29.38 48.8956C29.2347 48.8313 29.0776 48.798 28.9188 48.798C28.7599 48.798 28.6028 48.8313 28.4576 48.8956C28.3285 48.9591 28.2155 49.0512 28.1274 49.1649C28.0386 49.2803 27.9717 49.411 27.9301 49.5505C27.8822 49.699 27.8567 49.8538 27.8544 50.0098Z" fill="white"/>
<path d="M34.556 51.8876V48.1651H36.207C36.3672 48.1641 36.527 48.182 36.6829 48.2186C36.823 48.249 36.9539 48.3122 37.0648 48.403C37.1571 48.4793 37.233 48.5734 37.288 48.6797C37.3525 48.8077 37.3842 48.9497 37.3802 49.0929C37.3865 49.25 37.3549 49.4063 37.288 49.5486C37.2149 49.6915 37.1005 49.8092 36.9596 49.8861C37.0611 49.9142 37.1559 49.9625 37.2382 50.0282C37.3131 50.0896 37.3757 50.1647 37.4226 50.2495C37.4707 50.3346 37.5049 50.4268 37.5241 50.5226C37.5464 50.6224 37.5557 50.7247 37.5518 50.8269C37.5459 50.9906 37.4997 51.1503 37.4171 51.2918C37.3381 51.4305 37.2275 51.5487 37.0943 51.6367C36.939 51.7442 36.761 51.8143 36.5741 51.8415C36.3878 51.8692 36.1998 51.8833 36.0115 51.8839L34.556 51.8876ZM35.9912 49.674C36.0687 49.674 36.1461 49.674 36.2236 49.6611C36.2997 49.652 36.3731 49.6275 36.4394 49.5892C36.4968 49.553 36.5453 49.5045 36.5815 49.4471C36.6211 49.384 36.6428 49.3113 36.6442 49.2368C36.6501 49.1659 36.6354 49.0948 36.6018 49.0321C36.5734 48.9832 36.5335 48.942 36.4855 48.9122C36.4298 48.8775 36.3665 48.8566 36.3011 48.8513C36.2273 48.8513 36.1517 48.8513 36.0742 48.8513H35.3363V49.6814L35.9912 49.674ZM35.3197 51.2143H36.0133C36.1212 51.2142 36.229 51.2081 36.3361 51.1959C36.4413 51.1878 36.5422 51.1507 36.6276 51.0889C36.6837 51.0458 36.7285 50.9897 36.7581 50.9254C36.7877 50.8611 36.8011 50.7906 36.7973 50.7199C36.7992 50.648 36.7807 50.577 36.7438 50.5152C36.7115 50.4624 36.6665 50.4187 36.6128 50.3879C36.5513 50.35 36.4819 50.3266 36.4099 50.3196C36.3343 50.3196 36.2568 50.3104 36.1756 50.3104H35.3197V51.2143Z" fill="white"/>
<path d="M42.0804 51.1774L41.8111 51.8876H40.981L42.4272 48.165H43.2887L44.7091 51.8876H43.8734L43.6152 51.1774H42.0804ZM42.3 50.5041H43.3828L42.8478 48.9748L42.3 50.5041Z" fill="white"/>
<path d="M51.1801 48.165V51.8876H50.4183V50.6314H49.9184L49.0403 51.8876H48.1567L49.1399 50.5465C48.8749 50.5024 48.6349 50.3634 48.4648 50.1554C48.3081 49.9423 48.2293 49.6818 48.2416 49.4176C48.2374 49.209 48.2803 49.0022 48.367 48.8125C48.4435 48.6572 48.5553 48.522 48.6935 48.4178C48.833 48.3209 48.9914 48.2549 49.1584 48.2241C49.3499 48.1874 49.5445 48.1694 49.7395 48.1706L51.1801 48.165ZM50.4183 49.9691V48.8439H49.7247C49.6354 48.8433 49.5461 48.8476 49.4572 48.8568C49.3829 48.8638 49.3107 48.8857 49.2451 48.9214C49.1677 48.9645 49.1038 49.0284 49.0606 49.1058C49.0132 49.2034 48.9904 49.311 48.9942 49.4194C48.9926 49.5104 49.0169 49.6 49.0643 49.6777C49.1051 49.747 49.1628 49.8048 49.2322 49.8455C49.313 49.897 49.4045 49.9291 49.4997 49.9396C49.6004 49.9543 49.7022 49.9617 49.804 49.9617L50.4183 49.9691Z" fill="white"/>
<path d="M60.6746 48.165L61.7888 49.9156L62.8882 48.165H63.7036V51.8876H62.9399V49.3161L61.9475 50.9247H61.6062L60.6008 49.3161V51.8876H59.8445V48.165H60.6746Z" fill="white"/>
<path d="M70.3794 48.165V48.8439H68.4831V49.7109H70.1377V50.3897H68.4831V51.2143H70.3794V51.8876H67.7194V48.165H70.3794Z" fill="white"/>
<path d="M77.6455 52.8283H76.8929V51.8876H74.6018V52.8283H73.8492V51.2143H73.9857C74.0408 51.2148 74.0958 51.2099 74.1499 51.1995C74.1962 51.1882 74.2392 51.1661 74.2753 51.1349C74.3027 51.1056 74.3251 51.0719 74.3417 51.0353C74.3605 50.9932 74.3754 50.9493 74.386 50.9044C74.397 50.8601 74.4044 50.814 74.4118 50.7697C74.4192 50.7254 74.4247 50.6848 74.4284 50.6461C74.4487 50.4155 74.4635 50.1794 74.4727 49.9359C74.4819 49.6924 74.4893 49.4563 74.4967 49.222C74.5077 48.8752 74.5114 48.5229 74.5114 48.165H77.1936V51.2143H77.6455V52.8283ZM76.4317 51.2143V48.8439H75.2382L75.2069 50.0374C75.2069 50.1167 75.2069 50.2108 75.2069 50.3159C75.2069 50.4211 75.1958 50.528 75.1866 50.6369C75.1773 50.7457 75.1607 50.849 75.1441 50.9523C75.1292 51.0421 75.1045 51.1299 75.0703 51.2143H76.4317Z" fill="white"/>
<path d="M82.0819 50.5668L83.9007 48.165H84.5169V51.8876H83.755V49.5061L81.9362 51.8876H81.3201V48.165H82.0819V50.5668Z" fill="white"/>
<path d="M89.2373 51.1774L88.9699 51.8876H88.1398L89.5805 48.165H90.4419L91.8623 51.8876H91.0267L90.7684 51.1774H89.2373ZM89.4587 50.5041H90.5415L90.0066 48.9748L89.4587 50.5041Z" fill="white"/>
<path d="M97.7597 51.2143V48.165H98.5216V51.2143H98.9735V52.8283H98.2227V51.8876H95.4834V48.165H96.2452V51.2143H97.7597Z" fill="white"/>
<path d="M103.412 50.5668L105.231 48.165H105.845V51.8876H105.083V49.5061L103.264 51.8876H102.65V48.165H103.412V50.5668Z" fill="white"/>
<path d="M112.718 48.165V51.8876H111.954V50.6314H111.456L110.578 51.8876H109.695L110.678 50.5465C110.412 50.5028 110.171 50.3638 110.001 50.1554C109.845 49.9417 109.767 49.6815 109.779 49.4176C109.774 49.2089 109.817 49.0019 109.905 48.8125C109.981 48.6572 110.093 48.522 110.231 48.4178C110.371 48.3209 110.529 48.2549 110.696 48.2241C110.888 48.1874 111.082 48.1694 111.277 48.1706L112.718 48.165ZM111.954 49.9691V48.8439H111.261C111.172 48.8433 111.083 48.8476 110.995 48.8568C110.921 48.8638 110.849 48.8857 110.783 48.9214C110.705 48.9641 110.641 49.028 110.599 49.1058C110.551 49.2034 110.528 49.311 110.532 49.4194C110.53 49.5102 110.554 49.5998 110.6 49.6777C110.642 49.7466 110.699 49.8043 110.768 49.8455C110.849 49.8967 110.941 49.9288 111.036 49.9396C111.137 49.9543 111.239 49.9617 111.342 49.9617L111.954 49.9691Z" fill="white"/>
</svg>
