<svg width="113" height="50" viewBox="0 0 113 50" fill="none" xmlns="http://www.w3.org/2000/svg">
<path d="M37.3596 25.1966C35.0723 24.1285 31.8847 25.6338 29.4719 27.2073V20.1274H25.8711V37.8362H29.4719V31.6547C32.2389 29.4559 35.1903 28.0742 35.8341 28.4598C35.8341 28.4598 36.1016 28.7383 36.0905 29.9023L36.0075 37.8343H39.6083L39.6913 29.9355C39.7227 26.9324 38.4406 25.6928 37.3596 25.191" fill="#FF3701"/>
<path d="M51.7727 31.3783C49.0057 33.5771 46.0543 34.9588 45.4123 34.5732C45.4123 34.5732 45.143 34.2947 45.1559 33.1288L45.2371 25.3813H41.6345L41.5533 33.0975C41.5219 36.1006 42.8058 37.3402 43.8868 37.8401C44.4311 38.0896 45.0239 38.2156 45.6226 38.209C47.6259 38.209 49.9262 37.0432 51.7727 35.8387V37.853H55.3735V25.3757H51.7727V31.3783Z" fill="#FF3701"/>
<path d="M78.9405 25.1947C76.5425 24.0694 73.1335 25.7923 70.6875 27.4489C70.2337 26.1834 69.435 25.5286 68.7211 25.1947C66.4356 24.1248 63.248 25.63 60.837 27.2054V25.3146H57.2344V37.8398H60.8352V31.6528C63.6022 29.4522 66.5536 28.0705 67.1955 28.456C67.1955 28.456 67.463 28.7364 67.4501 29.9004L67.3689 37.8324H70.9697L71.0343 31.6602C73.8013 29.4466 76.7693 28.0613 77.4131 28.4487C77.4131 28.4487 77.6824 28.729 77.6695 29.893L77.5865 37.8251H81.1892L81.2722 30.0498C81.3035 27.0467 80.0196 25.6854 78.9387 25.1799" fill="#FF3701"/>
<path d="M93.2546 27.2848C90.792 26.0341 87.0916 24.029 84.605 25.3756C83.548 25.9493 82.2881 27.2202 82.2881 30.013V30.6956C82.2881 32.389 82.277 36.3531 85.1602 37.7385C85.777 38.0325 86.4526 38.182 87.1359 38.1757C88.8127 38.1757 90.8252 37.4544 93.2546 35.82V37.8399H96.8572V25.3756H93.2546V27.2848ZM86.7208 34.4937C86.1674 34.2263 85.8852 32.4093 85.8889 30.1606V30.013C85.8889 29.6441 85.9313 28.755 86.3205 28.5373C86.5452 28.4323 86.7922 28.3835 87.0399 28.3953C88.4806 28.3953 91.1185 30.0149 93.2177 31.2969C88.3847 35.1062 86.8795 34.5638 86.7208 34.4882" fill="#FF3701"/>
<path d="M110.311 25.1912C108.024 24.1213 104.836 25.6266 102.423 27.2019V25.3757H98.8301V37.8401H102.431V31.6494C105.198 29.4487 108.149 28.067 108.793 28.4526C108.793 28.4526 109.061 28.7311 109.049 29.8969L108.966 37.8401H112.569L112.65 29.9338C112.682 26.9307 111.4 25.6911 110.319 25.1912" fill="#FF3701"/>
<path d="M11.4867 5.41082C9.20117 4.34092 6.0136 5.84616 3.60078 7.4215V0.339844H0V18.0486H3.60078V11.869C6.36777 9.6683 9.31923 8.28849 9.96302 8.67218C9.96302 8.67218 10.2305 8.95257 10.2194 10.1166L10.1456 18.0486H13.7372L13.8202 10.1479C13.8516 7.1448 12.5695 5.90519 11.4867 5.40528" fill="#FF3701"/>
<path d="M25.9005 11.5924C23.1336 13.7912 20.1821 15.1729 19.5402 14.7873C19.5402 14.7873 19.2708 14.5088 19.2837 13.3448L19.3649 5.59722H15.7623L15.6793 13.3042C15.6479 16.3073 16.93 17.5469 18.0128 18.0487C18.5571 18.2982 19.1499 18.4242 19.7486 18.4176C21.7519 18.4176 24.0522 17.2536 25.8987 16.0472V18.0487H29.4995V5.58984H25.9005V11.5924Z" fill="#FF3701"/>
<path d="M53.0692 5.40706C50.6711 4.28181 47.2622 6.00473 44.8162 7.66308C44.3624 6.39579 43.5637 5.74094 42.8498 5.40706C40.5642 4.33715 37.3767 5.8424 34.9657 7.41774V5.5288H31.3594V18.0485H34.9602V11.8652C37.7271 9.66638 40.6786 8.28288 41.3187 8.67026C41.3187 8.67026 41.588 8.94881 41.5751 10.1128L41.505 18.0485H45.1058L45.1704 11.8744C47.9373 9.66085 50.9054 8.27735 51.5492 8.66473C51.5492 8.66473 51.8185 8.94327 51.8056 10.1073L51.7171 18.0485H55.3197L55.4009 10.2714C55.4322 7.26832 54.1502 5.9088 53.0692 5.40152" fill="#FF3701"/>
<path d="M67.3834 7.49705C64.9208 6.24268 61.2204 4.24307 58.7338 5.58967C57.6768 6.16152 56.4169 7.43433 56.415 10.2253V10.9097C56.415 12.6012 56.4058 16.5673 59.289 17.9526C59.9059 18.246 60.5816 18.3949 61.2647 18.3879C62.9415 18.3879 64.954 17.6685 67.3834 16.0323V18.0485H70.986V5.58967H67.3834V7.49705ZM60.8496 14.706C60.2962 14.4385 60.014 12.6234 60.0177 10.3747V10.2253C60.0177 9.85637 60.0601 8.96725 60.4493 8.74958C60.6742 8.64514 60.921 8.59642 61.1687 8.60754C62.6094 8.60754 65.2473 10.2272 67.3447 11.511C62.5135 15.3203 61.0082 14.7761 60.8496 14.7005" fill="#FF3701"/>
<path d="M84.4447 5.40337C82.1592 4.33347 78.9716 5.83871 76.5588 7.41405V5.58968H72.958V18.0485H76.5533V11.8615C79.3202 9.66085 82.2717 8.28104 82.9155 8.66658C82.9155 8.66658 83.183 8.94512 83.1719 10.1091L83.0944 18.0485H86.6989L86.7801 10.1405C86.8114 7.13735 85.5294 5.89774 84.4466 5.39784" fill="#FF3701"/>
<path d="M17.6903 28.9653C15.3531 26.5912 13.2336 23.7449 13.1469 22.8779L9.54428 22.8964C9.55131 23.2564 9.6097 23.6135 9.71768 23.9571C10.142 25.3977 11.2967 27.0819 12.4847 28.5576H0V32.1603H12.4884C11.293 33.636 10.142 35.322 9.72137 36.7627C9.61327 37.1055 9.55487 37.4621 9.54797 37.8215L13.1506 37.84C13.2373 36.973 15.3642 34.1285 17.694 31.7526L19.0627 30.358L17.6903 28.9653Z" fill="#FF3701"/>
<path d="M3.11715 45.165V48.8876H2.35531V45.8439H0.772587V48.8876H0.0107422V45.165H3.11715Z" fill="#FF3701"/>
<path d="M8.56525 45.1652C8.7704 45.163 8.97499 45.1872 9.17399 45.2371C9.34398 45.2776 9.50319 45.3543 9.64069 45.4622C9.77159 45.5701 9.87259 45.7098 9.93399 45.868C10.0076 46.0634 10.0409 46.2718 10.0318 46.4804C10.0311 46.6703 9.99349 46.8583 9.92107 47.0338C9.85555 47.1903 9.75598 47.3302 9.62962 47.4433C9.49969 47.5572 9.34775 47.6433 9.18321 47.696C9.00026 47.7549 8.80908 47.7842 8.6169 47.7827H7.89748V48.8895H7.13379V45.1652H8.56525ZM8.56525 47.115C8.65621 47.1159 8.74686 47.1041 8.83457 47.0799C8.91461 47.0559 8.98917 47.0164 9.05408 46.9637C9.11837 46.9101 9.17055 46.8435 9.20719 46.7682C9.24777 46.6828 9.26917 46.5897 9.26991 46.4952C9.28437 46.4025 9.27502 46.3076 9.24276 46.2195C9.21049 46.1314 9.15635 46.053 9.08544 45.9916C8.93289 45.8867 8.75013 45.8349 8.56525 45.844H7.89748V47.115H8.56525Z" fill="#FF3701"/>
<path d="M14.2166 48.1774L13.9473 48.8876H13.1172L14.5579 45.165H15.4193L16.8397 48.8876H16.0041L15.7458 48.1774H14.2166ZM14.4361 47.5041H15.5189L14.984 45.9748L14.4361 47.5041Z" fill="#FF3701"/>
<path d="M20.4551 48.8876V45.1651H22.1153C22.2749 45.164 22.434 45.1819 22.5894 45.2186C22.7294 45.249 22.8603 45.3122 22.9712 45.403C23.0635 45.4793 23.1394 45.5734 23.1944 45.6797C23.2597 45.8074 23.2915 45.9496 23.2866 46.093C23.293 46.25 23.2613 46.4063 23.1944 46.5486C23.1218 46.6919 23.0073 46.8097 22.8661 46.8862C22.9675 46.9142 23.0623 46.9625 23.1446 47.0282C23.22 47.0891 23.2827 47.1644 23.3291 47.2496C23.377 47.3348 23.4119 47.4269 23.4324 47.5226C23.4532 47.6226 23.4618 47.7248 23.4582 47.8269C23.4523 47.9906 23.4061 48.1503 23.3235 48.2918C23.2456 48.4313 23.1348 48.5498 23.0007 48.6367C22.8458 48.7448 22.6676 48.815 22.4805 48.8415C22.2973 48.8688 22.1124 48.883 21.9271 48.8839L20.4551 48.8876ZM21.8921 46.674C21.9695 46.674 22.0452 46.674 22.1227 46.6611C22.1988 46.6523 22.2723 46.6278 22.3385 46.5892C22.3962 46.5535 22.4449 46.5049 22.4805 46.4471C22.5202 46.384 22.5418 46.3113 22.5432 46.2368C22.5491 46.1659 22.5344 46.0948 22.5008 46.0321C22.4726 45.9837 22.4334 45.9426 22.3864 45.9122C22.3271 45.8764 22.26 45.8555 22.1909 45.8513C22.1171 45.8513 22.0415 45.8513 21.9659 45.8513H21.228V46.6814L21.8921 46.674ZM21.2132 48.2143H21.9068C22.0147 48.2143 22.1225 48.2081 22.2296 48.1959C22.3348 48.1878 22.4357 48.1507 22.5211 48.0889C22.5772 48.0458 22.622 47.9897 22.6516 47.9254C22.6812 47.8611 22.6946 47.7906 22.6908 47.7199C22.6927 47.648 22.6742 47.577 22.6373 47.5152C22.6058 47.4618 22.5606 47.4179 22.5063 47.3879C22.4449 47.3497 22.3755 47.3263 22.3034 47.3197C22.2278 47.3197 22.1503 47.3104 22.0692 47.3104H21.2132V48.2143Z" fill="#FF3701"/>
<path d="M28.9152 45.1172C29.1775 45.1132 29.4381 45.1602 29.6825 45.2555C29.9015 45.3401 30.0992 45.4717 30.2618 45.6411C30.4242 45.8123 30.5498 46.0151 30.6307 46.2369C30.798 46.7335 30.798 47.2713 30.6307 47.7679C30.5495 47.9934 30.424 48.2003 30.2618 48.3767C30.0994 48.5515 29.9012 48.6893 29.6807 48.7807C29.4328 48.8798 29.1672 48.9269 28.9004 48.919C28.6345 48.9238 28.3703 48.8749 28.1238 48.7751C27.9066 48.6852 27.7116 48.5493 27.552 48.3767C27.3919 48.2042 27.2699 47.9999 27.1941 47.7772C27.1092 47.5342 27.0674 47.2782 27.0705 47.0209C27.0671 46.7588 27.1108 46.4982 27.1996 46.2516C27.2795 46.0272 27.4052 45.8218 27.5686 45.6484C27.7318 45.4778 27.93 45.3444 28.1496 45.2574C28.3939 45.1614 28.6546 45.1138 28.917 45.1172M27.8545 47.0098C27.8536 47.166 27.876 47.3214 27.9209 47.471C27.9619 47.6103 28.0282 47.741 28.1164 47.8565C28.2032 47.9713 28.3157 48.0641 28.4448 48.1277C28.5898 48.1994 28.7497 48.2361 28.9115 48.2346C29.069 48.2416 29.2259 48.2106 29.3689 48.1443C29.4992 48.0817 29.6129 47.9895 29.701 47.8749C29.7905 47.7563 29.858 47.6226 29.9002 47.4802C29.9465 47.3296 29.9695 47.1728 29.9685 47.0153C29.9684 46.8606 29.9466 46.7066 29.9039 46.5579C29.8629 46.4167 29.7966 46.2842 29.7084 46.1668C29.622 46.0516 29.5094 45.9587 29.38 45.8956C29.2348 45.8313 29.0777 45.798 28.9189 45.798C28.76 45.798 28.6029 45.8313 28.4577 45.8956C28.3285 45.9591 28.2156 46.0512 28.1275 46.1649C28.0387 46.2803 27.9718 46.411 27.9301 46.5505C27.8822 46.699 27.8568 46.8538 27.8545 47.0098Z" fill="#FF3701"/>
<path d="M34.5557 48.8876V45.1651H36.2066C36.3668 45.1641 36.5266 45.182 36.6826 45.2186C36.8226 45.249 36.9535 45.3122 37.0644 45.403C37.1567 45.4793 37.2326 45.5734 37.2876 45.6797C37.3521 45.8077 37.3838 45.9497 37.3798 46.0929C37.3862 46.25 37.3545 46.4063 37.2876 46.5486C37.2146 46.6915 37.1001 46.8092 36.9593 46.8861C37.0607 46.9142 37.1555 46.9625 37.2378 47.0282C37.3128 47.0896 37.3754 47.1647 37.4223 47.2495C37.4703 47.3346 37.5046 47.4268 37.5237 47.5226C37.5461 47.6224 37.5554 47.7247 37.5514 47.8269C37.5456 47.9906 37.4993 48.1503 37.4167 48.2918C37.3377 48.4305 37.2271 48.5487 37.0939 48.6367C36.9387 48.7442 36.7606 48.8143 36.5737 48.8415C36.3875 48.8692 36.1994 48.8833 36.0111 48.8839L34.5557 48.8876ZM35.9908 46.674C36.0683 46.674 36.1458 46.674 36.2232 46.6611C36.2993 46.652 36.3727 46.6275 36.4391 46.5892C36.4964 46.553 36.545 46.5045 36.5811 46.4471C36.6207 46.384 36.6424 46.3113 36.6438 46.2368C36.6497 46.1659 36.635 46.0948 36.6014 46.0321C36.5731 45.9832 36.5332 45.942 36.4852 45.9122C36.4294 45.8775 36.3662 45.8566 36.3007 45.8513C36.2269 45.8513 36.1513 45.8513 36.0738 45.8513H35.336V46.6814L35.9908 46.674ZM35.3194 48.2143H36.0129C36.1208 48.2142 36.2286 48.2081 36.3358 48.1959C36.4409 48.1878 36.5418 48.1507 36.6272 48.0889C36.6834 48.0458 36.7282 47.9897 36.7577 47.9254C36.7873 47.8611 36.8008 47.7906 36.7969 47.7199C36.7988 47.648 36.7803 47.577 36.7434 47.5152C36.7111 47.4624 36.6661 47.4187 36.6125 47.3879C36.5509 47.35 36.4815 47.3266 36.4095 47.3196C36.3339 47.3196 36.2564 47.3104 36.1753 47.3104H35.3194V48.2143Z" fill="#FF3701"/>
<path d="M42.0809 48.1774L41.8115 48.8876H40.9814L42.4277 45.165H43.2891L44.7095 48.8876H43.8739L43.6156 48.1774H42.0809ZM42.3004 47.5041H43.3832L42.8482 45.9748L42.3004 47.5041Z" fill="#FF3701"/>
<path d="M51.1806 45.165V48.8876H50.4188V47.6314H49.9189L49.0408 48.8876H48.1572L49.1404 47.5465C48.8754 47.5024 48.6354 47.3634 48.4653 47.1554C48.3086 46.9423 48.2298 46.6818 48.2421 46.4176C48.2379 46.209 48.2807 46.0022 48.3675 45.8125C48.444 45.6572 48.5558 45.522 48.694 45.4178C48.8335 45.3209 48.9919 45.2549 49.1589 45.2241C49.3504 45.1874 49.545 45.1694 49.7399 45.1706L51.1806 45.165ZM50.4188 46.9691V45.8439H49.7252C49.6359 45.8433 49.5466 45.8476 49.4577 45.8568C49.3834 45.8638 49.3112 45.8857 49.2456 45.9214C49.1682 45.9645 49.1043 46.0284 49.0611 46.1058C49.0137 46.2034 48.9909 46.311 48.9947 46.4194C48.9931 46.5104 49.0174 46.6 49.0648 46.6777C49.1056 46.747 49.1633 46.8048 49.2327 46.8455C49.3134 46.897 49.405 46.9291 49.5001 46.9396C49.6009 46.9543 49.7027 46.9617 49.8045 46.9617L50.4188 46.9691Z" fill="#FF3701"/>
<path d="M60.6748 45.165L61.789 46.9156L62.8884 45.165H63.7038V48.8876H62.9401V46.3161L61.9476 47.9247H61.6064L60.601 46.3161V48.8876H59.8447V45.165H60.6748Z" fill="#FF3701"/>
<path d="M70.3797 45.165V45.8439H68.4834V46.7109H70.1381V47.3897H68.4834V48.2143H70.3797V48.8876H67.7197V45.165H70.3797Z" fill="#FF3701"/>
<path d="M77.6459 49.8283H76.8933V48.8876H74.6022V49.8283H73.8496V48.2143H73.9861C74.0412 48.2148 74.0962 48.2099 74.1503 48.1995C74.1966 48.1882 74.2396 48.1661 74.2757 48.1349C74.3031 48.1056 74.3256 48.0719 74.3421 48.0353C74.361 47.9932 74.3758 47.9493 74.3864 47.9044C74.3975 47.8601 74.4049 47.814 74.4122 47.7697C74.4196 47.7254 74.4251 47.6848 74.4288 47.6461C74.4491 47.4155 74.4639 47.1794 74.4731 46.9359C74.4823 46.6924 74.4897 46.4563 74.4971 46.222C74.5082 45.8752 74.5118 45.5229 74.5118 45.165H77.194V48.2143H77.6459V49.8283ZM76.4321 48.2143V45.8439H75.2386L75.2073 47.0374C75.2073 47.1167 75.2073 47.2108 75.2073 47.3159C75.2073 47.4211 75.1962 47.528 75.187 47.6369C75.1778 47.7457 75.1612 47.849 75.1446 47.9523C75.1297 48.0421 75.1049 48.1299 75.0708 48.2143H76.4321Z" fill="#FF3701"/>
<path d="M82.0822 47.5668L83.901 45.165H84.5171V48.8876H83.7553V46.5061L81.9364 48.8876H81.3203V45.165H82.0822V47.5668Z" fill="#FF3701"/>
<path d="M89.2372 48.1774L88.9697 48.8876H88.1396L89.5803 45.165H90.4418L91.8622 48.8876H91.0265L90.7683 48.1774H89.2372ZM89.4586 47.5041H90.5414L90.0064 45.9748L89.4586 47.5041Z" fill="#FF3701"/>
<path d="M97.7597 48.2143V45.165H98.5216V48.2143H98.9735V49.8283H98.2227V48.8876H95.4834V45.165H96.2452V48.2143H97.7597Z" fill="#FF3701"/>
<path d="M103.411 47.5668L105.23 45.165H105.844V48.8876H105.083V46.5061L103.264 48.8876H102.649V45.165H103.411V47.5668Z" fill="#FF3701"/>
<path d="M112.718 45.165V48.8876H111.954V47.6314H111.456L110.578 48.8876H109.694L110.678 47.5465C110.412 47.5028 110.171 47.3638 110.001 47.1554C109.845 46.9417 109.767 46.6815 109.779 46.4176C109.774 46.2089 109.817 46.0019 109.905 45.8125C109.981 45.6572 110.093 45.522 110.231 45.4178C110.371 45.3209 110.529 45.2549 110.696 45.2241C110.887 45.1874 111.082 45.1694 111.277 45.1706L112.718 45.165ZM111.954 46.9691V45.8439H111.26C111.172 45.8433 111.083 45.8476 110.995 45.8568C110.92 45.8638 110.848 45.8857 110.783 45.9214C110.705 45.9641 110.641 46.028 110.598 46.1058C110.551 46.2034 110.528 46.311 110.532 46.4194C110.53 46.5102 110.553 46.5998 110.6 46.6777C110.641 46.7466 110.699 46.8043 110.768 46.8455C110.849 46.8967 110.94 46.9288 111.035 46.9396C111.137 46.9543 111.239 46.9617 111.342 46.9617L111.954 46.9691Z" fill="#FF3701"/>
</svg>
