<svg width="25" height="24" viewBox="0 0 25 24" fill="none" xmlns="http://www.w3.org/2000/svg">
<circle cx="13" cy="12" r="10" fill="#FF3701"/>
<g clip-path="url(#clip0_303_14664)">
<path d="M11.06 9.99999C11.2167 9.55444 11.5261 9.17873 11.9333 8.93942C12.3405 8.7001 12.8193 8.61262 13.2848 8.69247C13.7503 8.77232 14.1726 9.01434 14.4767 9.37568C14.7809 9.73702 14.9474 10.1943 14.9467 10.6667C14.9467 12 12.9467 12.6667 12.9467 12.6667M13 15.3333H13.0067M19.6667 12C19.6667 15.6819 16.6819 18.6667 13 18.6667C9.31811 18.6667 6.33334 15.6819 6.33334 12C6.33334 8.3181 9.31811 5.33333 13 5.33333C16.6819 5.33333 19.6667 8.3181 19.6667 12Z" stroke="white" stroke-linecap="round" stroke-linejoin="round"/>
</g>
<defs>
<clipPath id="clip0_303_14664">
<rect width="16" height="16" fill="white" transform="translate(5 4)"/>
</clipPath>
</defs>
</svg>
