<svg width="36" height="36" viewBox="0 0 36 36" fill="none" xmlns="http://www.w3.org/2000/svg">
<path d="M30 15C30 24 18 33 18 33C18 33 6 24 6 15C6 11.8174 7.26428 8.76516 9.51472 6.51472C11.7652 4.26428 14.8174 3 18 3C21.1826 3 24.2348 4.26428 26.4853 6.51472C28.7357 8.76516 30 11.8174 30 15Z" stroke="#FF3701" stroke-width="2" stroke-linecap="round" stroke-linejoin="round"/>
<path d="M18 19.5C20.4853 19.5 22.5 17.4853 22.5 15C22.5 12.5147 20.4853 10.5 18 10.5C15.5147 10.5 13.5 12.5147 13.5 15C13.5 17.4853 15.5147 19.5 18 19.5Z" stroke="#FF3701" stroke-width="2" stroke-linecap="round" stroke-linejoin="round"/>
</svg>
