<?xml version="1.0" encoding="utf-8"?><svg viewBox="0 0 32 32" xmlns="http://www.w3.org/2000/svg" xmlns:xlink="http://www.w3.org/1999/xlink"><style>:root>svg{display:none}:root>svg:target{display:block}</style><svg viewBox="0 0 20 20" id="arrow-back" xmlns="http://www.w3.org/2000/svg"><g clip-path="url(#aaclip0_2205_1132)"><path d="M6.523 9.167h10.144v1.667H6.523l4.47 4.47-1.178 1.178L3.333 10 9.815 3.52l1.178 1.178-4.47 4.47z"/></g><defs><clipPath id="aaclip0_2205_1132"><path d="M0 0h20v20H0z"/></clipPath></defs></svg><svg viewBox="0 0 20 20" id="arrow-next" xmlns="http://www.w3.org/2000/svg"><g clip-path="url(#abclip0_159_2086)"><path d="M13.476 9.167l-4.47-4.47 1.179-1.179L16.666 10l-6.481 6.482-1.179-1.179 4.47-4.47H3.333V9.167h10.143z"/></g><defs><clipPath id="abclip0_159_2086"><path d="M0 0h20v20H0z"/></clipPath></defs></svg><svg viewBox="0 0 32 32" id="arrow-slider" xmlns="http://www.w3.org/2000/svg"><path d="M16 25.333L6.667 16 16 6.667M25.333 16h-18"/></svg><svg viewBox="0 0 20 20" id="bill" xmlns="http://www.w3.org/2000/svg"><path d="M3 2v16l1.75-.8 1.75.8 1.75-.8L10 18l1.75-.8 1.75.8 1.75-.8L17 18V2l-1.75.8L13.5 2l-1.75.8L10 2l-1.75.8L6.5 2l-1.75.8L3 2zM12 7H6M14 10H6M11 13H6"/></svg><svg viewBox="0 0 13 14" id="btn-arrow" xmlns="http://www.w3.org/2000/svg"><path d="M12.903.976H.854v2.448H8.72L.854 11.293v1.731h1.731l7.869-7.867v7.867h2.45V.976z"/></svg><svg viewBox="0 0 20 20" id="cart" xmlns="http://www.w3.org/2000/svg"><g clip-path="url(#afclip0_2228_7592)"><path d="M2.5 8.333h-.833V3.336c0-.462.38-.836.827-.836h15.013a.825.825 0 01.827.836v4.997H17.5v8.335a.829.829 0 01-.827.832H3.328a.83.83 0 01-.828-.832V8.332zm13.334 0H4.167v7.5h11.667v-7.5zm-12.5-4.166v2.5h13.333v-2.5H3.334zM7.5 10h5v1.667h-5V10z"/></g><defs><clipPath id="afclip0_2228_7592"><path d="M0 0h20v20H0z"/></clipPath></defs></svg><svg viewBox="0 0 16 16" id="check-black" xmlns="http://www.w3.org/2000/svg"><path d="M13.334 4L6 11.333 2.667 8"/></svg><svg viewBox="0 0 16 16" id="check-green" xmlns="http://www.w3.org/2000/svg"><path d="M13.334 4L6 11.333 2.667 8"/></svg><svg viewBox="0 0 20 20" id="close" xmlns="http://www.w3.org/2000/svg"><path d="M15 5L5 15M5 5l10 10"/></svg><svg viewBox="0 0 20 20" id="context-menu" xmlns="http://www.w3.org/2000/svg"><path d="M10 10.833a.833.833 0 100-1.666.833.833 0 000 1.666zM15.833 10.833a.833.833 0 100-1.666.833.833 0 000 1.666zM4.166 10.833a.833.833 0 100-1.666.833.833 0 000 1.666z"/></svg><svg viewBox="0 0 20 20" id="context-menu-vertical" xmlns="http://www.w3.org/2000/svg"><path d="M10 10.833a.833.833 0 100-1.666.833.833 0 000 1.666zM10 5a.833.833 0 100-1.667A.833.833 0 0010 5zM10 16.667A.833.833 0 1010 15a.833.833 0 000 1.667z"/></svg><svg viewBox="0 0 20 20" id="delete" xmlns="http://www.w3.org/2000/svg"><path d="M2.5 5h15M15.833 5v11.667c0 .833-.834 1.666-1.667 1.666H5.833c-.834 0-1.667-.833-1.667-1.666V5M6.666 5V3.333c0-.833.833-1.667 1.667-1.667h3.333c.833 0 1.667.834 1.667 1.667V5M8.334 9.166v5M11.666 9.166v5"/></svg><svg viewBox="0 0 20 20" id="doc" xmlns="http://www.w3.org/2000/svg"><g clip-path="url(#amclip0_2213_1657)"><path d="M15.834 18.333H4.167a2.5 2.5 0 01-2.5-2.5V2.5a.833.833 0 01.833-.833h11.667A.833.833 0 0115 2.5v10h3.334v3.333a2.5 2.5 0 01-2.5 2.5zM15 14.167v1.666a.833.833 0 001.667 0v-1.666H15zm-1.666 2.5V3.333h-10v12.5a.833.833 0 00.833.834h9.167zM5 5.833h6.667V7.5H5V5.833zm0 3.334h6.667v1.666H5V9.167zM5 12.5h4.167v1.667H5V12.5z"/></g><defs><clipPath id="amclip0_2213_1657"><path d="M0 0h20v20H0z"/></clipPath></defs></svg><svg viewBox="0 0 20 20" id="download" xmlns="http://www.w3.org/2000/svg"><path d="M10 13.333V2.5M5 9.167l5 5 5-5M15.833 17.5H4.166"/></svg><svg viewBox="0 0 20 20" id="download-orange" xmlns="http://www.w3.org/2000/svg"><g clip-path="url(#aoclip0_2208_5697)"><path d="M2.5 15.833h15V17.5h-15v-1.667zm8.333-4.856l5.06-5.06 1.178 1.178L10 14.167 2.93 7.096l1.177-1.18 5.06 5.059V1.667h1.666v9.31z"/></g><defs><clipPath id="aoclip0_2208_5697"><path d="M0 0h20v20H0z"/></clipPath></defs></svg><svg viewBox="0 0 20 20" id="download-rotate" xmlns="http://www.w3.org/2000/svg"><path d="M15 7.5l-5-5-5 5M10 4v10M4.167 17.5h11.667"/></svg><svg viewBox="0 0 20 20" id="exit" xmlns="http://www.w3.org/2000/svg"><path d="M7.5 17.5H4.167A1.667 1.667 0 012.5 15.833V4.167A1.667 1.667 0 014.167 2.5H7.5M13.333 14.167L17.5 10l-4.167-4.167M17 10H8"/></svg><svg viewBox="0 0 20 20" id="file" xmlns="http://www.w3.org/2000/svg"><path d="M17.867 9.208l-7.659 7.659a5.003 5.003 0 11-7.075-7.075l7.142-7.142A3.338 3.338 0 0115 7.367l-7.158 7.141a1.668 1.668 0 01-2.359-2.358l7.075-7.067"/></svg><svg viewBox="0 0 20 20" id="filter" xmlns="http://www.w3.org/2000/svg"><path d="M18.334 2.5H1.667l6.667 7.883v5.45l3.333 1.667v-7.117L18.334 2.5z"/></svg><svg viewBox="0 0 20 20" id="karandash" xmlns="http://www.w3.org/2000/svg"><path d="M14.756 1.91a.833.833 0 00-1.178 0l-1.911 1.912-1.078-1.078a.833.833 0 00-1.178 0l-5 5a.833.833 0 001.178 1.178L10 4.512l.488.488-1.91 1.91-5.834 5.834a.833.833 0 00-.244.59v3.333a.833.833 0 00.833.833h3.334a.833.833 0 00.589-.244l5.833-5.834 5-5a.833.833 0 000-1.178l-3.333-3.333zm-2.5 3.68l1.91-1.912 2.156 2.155L12.5 9.655 10.345 7.5l1.91-1.91zm-8.09 8.088l5-5 2.156 2.155-5 5H4.167v-2.155z"/></svg><svg viewBox="0 0 20 20" id="message" xmlns="http://www.w3.org/2000/svg"><g clip-path="url(#auclip0_2205_3221)"><path d="M8.333 12.23v-.052c0-2.09 1.68-3.848 3.96-4.36-.302-1.919-2.327-3.485-4.877-3.485C4.65 4.333 2.5 6.178 2.5 8.317c0 .807.3 1.583.866 2.248.027.032.07.078.127.138.49.503.786 1.164.835 1.865a3.01 3.01 0 011.97-.369c.138.022.25.039.337.05a6.043 6.043 0 001.698-.019zm.38 1.626a7.676 7.676 0 01-2.293.046 16.07 16.07 0 01-.379-.056 1.343 1.343 0 00-.9.177l-1.586.956a.671.671 0 01-.986-.355.66.66 0 01-.03-.257l.125-1.484a1.304 1.304 0 00-.366-1.019 4.616 4.616 0 01-.2-.218C1.301 10.712.832 9.56.832 8.316c0-3.12 2.948-5.65 6.583-5.65 3.384 0 6.17 2.19 6.542 5.007C16.768 7.801 19 9.77 19 12.178c0 .994-.38 1.914-1.024 2.659-.043.05-.097.108-.163.175a1.033 1.033 0 00-.297.813l.101 1.186a.529.529 0 01-.492.567.55.55 0 01-.33-.079l-1.286-.764c-.22-.13-.477-.18-.729-.14-.122.018-.224.033-.306.043a6.439 6.439 0 01-.808.052c-2.245 0-4.165-1.173-4.952-2.834zm5.815 1.091c.47-.072.951-.022 1.397.146.116-.473.359-.905.7-1.252.042-.042.073-.075.089-.093.407-.471.619-1.011.619-1.57 0-1.503-1.586-2.845-3.667-2.845-2.08 0-3.666 1.342-3.666 2.845 0 1.504 1.585 2.845 3.666 2.845.201 0 .4-.013.595-.038.067-.008.157-.02.267-.037z"/></g><defs><clipPath id="auclip0_2205_3221"><path d="M0 0h20v20H0z"/></clipPath></defs></svg><svg viewBox="0 0 20 20" id="order" xmlns="http://www.w3.org/2000/svg"><path d="M12.5 1.667h-5a.833.833 0 00-.833.833v1.667c0 .46.373.833.833.833h5c.46 0 .834-.373.834-.833V2.5a.833.833 0 00-.834-.833z"/><path d="M6.666 3.333H5A1.667 1.667 0 003.333 5v11.667A1.666 1.666 0 005 18.333h10a1.667 1.667 0 001.666-1.666v-.417M13.333 3.333H15a1.667 1.667 0 011.441.834M6.667 15H7.5"/><path d="M15.333 8a1.768 1.768 0 012.5 2.5l-3.667 3.667-3.333.833.833-3.333L15.333 8z"/></svg><svg viewBox="0 0 20 20" id="pag-next" xmlns="http://www.w3.org/2000/svg"><path d="M13.15 10.6a.625.625 0 00.183-.441v-.317a.642.642 0 00-.183-.442L8.866 5.125a.417.417 0 00-.591 0l-.592.592a.408.408 0 000 .583l3.708 3.7-3.708 3.7a.417.417 0 000 .592l.592.583a.417.417 0 00.591 0L13.15 10.6z"/></svg><svg viewBox="0 0 20 20" id="pag-prev" xmlns="http://www.w3.org/2000/svg"><path d="M6.85 10.6a.625.625 0 01-.183-.441v-.317A.642.642 0 016.85 9.4l4.284-4.275a.417.417 0 01.591 0l.592.592a.408.408 0 010 .583L8.609 10l3.708 3.7a.416.416 0 010 .592l-.592.583a.416.416 0 01-.591 0L6.85 10.6z"/></svg><svg viewBox="0 0 21 20" id="person" xmlns="http://www.w3.org/2000/svg"><path d="M15.5 17.5a6.667 6.667 0 00-13.333 0M8.834 10.833a4.167 4.167 0 100-8.333 4.167 4.167 0 000 8.333zM17.833 16.666v1h2v-1h-2zM15.5 10l-.6-.8-1.066.8 1.066.8.6-.8zm.135-7.777a1 1 0 10-1.02 1.72l1.02-1.72zm4.198 14.443c0-3.167-1.852-6.056-3.733-7.466l-1.2 1.6c1.453 1.09 2.933 3.417 2.933 5.866h2zM16.1 10.8a5.166 5.166 0 001.582-1.949l-1.813-.846c-.22.472-.553.882-.97 1.195l1.201 1.6zm1.582-1.949c.359-.77.523-1.616.477-2.464l-1.997.108a3.166 3.166 0 01-.293 1.51l1.813.846zm.477-2.464a5.165 5.165 0 00-.74-2.398l-1.711 1.037c.27.445.425.95.454 1.47l1.997-.109zm-.74-2.398a5.166 5.166 0 00-1.784-1.766l-1.02 1.72c.448.266.823.637 1.093 1.083l1.71-1.037z"/></svg><svg viewBox="0 0 21 20" id="plus" xmlns="http://www.w3.org/2000/svg"><path d="M4.667 10h11.667M10.5 4.167v11.667"/></svg><svg viewBox="0 0 20 20" id="profile" xmlns="http://www.w3.org/2000/svg"><g clip-path="url(#baclip0_2205_3233)"><path d="M14.237 13.177a5.834 5.834 0 10-8.474 0 4.997 4.997 0 016.658-1.72 4.998 4.998 0 011.816 1.72zm-7.25 1.227L10 17.416l3.012-3.012a3.333 3.333 0 00-6.025 0zM10 19.774L4.697 14.47a7.5 7.5 0 1110.606 0L10 19.773zm0-11.44a.833.833 0 100-1.668.833.833 0 000 1.667zM10 10a2.5 2.5 0 110-5 2.5 2.5 0 010 5z"/></g><defs><clipPath id="baclip0_2205_3233"><path d="M0 0h20v20H0z"/></clipPath></defs></svg><svg viewBox="0 0 16 16" id="remove" xmlns="http://www.w3.org/2000/svg"><path d="M12 4l-8 8M4 4l8 8"/></svg><svg viewBox="0 0 20 20" id="schet" xmlns="http://www.w3.org/2000/svg"><path d="M3 2v16l1.75-.8 1.75.8 1.75-.8L10 18l1.75-.8 1.75.8 1.75-.8L17 18V2l-1.75.8L13.5 2l-1.75.8L10 2l-1.75.8L6.5 2l-1.75.8L3 2zM12 7H6h6zM12 7H6M14 10H6M11 13H6"/></svg><svg viewBox="0 0 20 20" id="search" xmlns="http://www.w3.org/2000/svg"><path d="M9.167 15.833a6.667 6.667 0 100-13.333 6.667 6.667 0 000 13.333zM17.5 17.5l-3.583-3.583"/></svg><svg viewBox="0 0 20 20" id="send" xmlns="http://www.w3.org/2000/svg"><g clip-path="url(#beclip0_2210_7849)"><path d="M3.118 1.173l15.385 8.462a.416.416 0 010 .73L3.117 18.826a.417.417 0 01-.617-.364V1.538a.417.417 0 01.618-.365zm1.049 9.66v5.514L15.708 10 4.167 3.652v5.515h4.166v1.666H4.167z"/></g><defs><clipPath id="beclip0_2210_7849"><path d="M0 0h20v20H0z"/></clipPath></defs></svg><svg viewBox="0 0 20 20" id="stat" xmlns="http://www.w3.org/2000/svg"><path d="M2.5 2.5v15h15M15 14.167V7.5M10.833 14.166v-10M6.667 14.166v-2.5"/></svg><svg viewBox="0 0 20 20" id="two-window" xmlns="http://www.w3.org/2000/svg"><g clip-path="url(#bgclip0_2228_6411)"><path d="M16.667 6.667H8.334c-.92 0-1.667.746-1.667 1.667v8.333c0 .92.746 1.667 1.667 1.667h8.333c.92 0 1.667-.747 1.667-1.667V8.334c0-.92-.747-1.667-1.667-1.667z"/><path d="M3.334 13.334c-.917 0-1.667-.75-1.667-1.667V3.334c0-.917.75-1.667 1.667-1.667h8.333c.917 0 1.667.75 1.667 1.667"/></g><defs><clipPath id="bgclip0_2228_6411"><path d="M0 0h20v20H0z"/></clipPath></defs></svg></svg>