<svg width="21" height="20" viewBox="0 0 21 20" fill="none" xmlns="http://www.w3.org/2000/svg">
<path d="M15.5003 17.4997C15.5003 15.7316 14.7979 14.0359 13.5477 12.7856C12.2975 11.5354 10.6018 10.833 8.83366 10.833C7.06555 10.833 5.36986 11.5354 4.11961 12.7856C2.86937 14.0359 2.16699 15.7316 2.16699 17.4997" stroke="#353535" stroke-width="2" stroke-linecap="square"/>
<path d="M8.83366 10.8333C11.1348 10.8333 13.0003 8.96785 13.0003 6.66667C13.0003 4.36548 11.1348 2.5 8.83366 2.5C6.53247 2.5 4.66699 4.36548 4.66699 6.66667C4.66699 8.96785 6.53247 10.8333 8.83366 10.8333Z" stroke="#353535" stroke-width="2" stroke-linecap="square"/>
<path d="M17.8333 16.6663V17.6663H19.8333V16.6663H17.8333ZM15.5 9.99967L14.8999 9.19977L13.8335 9.99981L14.9 10.7997L15.5 9.99967ZM15.6351 2.22291C15.1601 1.94117 14.5466 2.09786 14.2649 2.57288C13.9832 3.0479 14.1399 3.66137 14.6149 3.94311L15.6351 2.22291ZM19.8333 16.6663C19.8333 13.4988 17.9806 10.6102 16.1 9.19967L14.9 10.7997C16.3527 11.8892 17.8333 14.2172 17.8333 16.6663H19.8333ZM16.1001 10.7996C16.7795 10.2899 17.3227 9.62063 17.6817 8.85099L15.8692 8.00548C15.6492 8.47719 15.3162 8.88739 14.8999 9.19977L16.1001 10.7996ZM17.6817 8.85099C18.0408 8.08134 18.2045 7.23506 18.1585 6.38704L16.1615 6.49531C16.1897 7.01507 16.0893 7.53376 15.8692 8.00548L17.6817 8.85099ZM18.1585 6.38704C18.1126 5.53901 17.8583 4.7154 17.4181 3.98908L15.7077 5.0256C15.9774 5.47076 16.1333 5.97555 16.1615 6.49531L18.1585 6.38704ZM17.4181 3.98908C16.978 3.26277 16.3656 2.65615 15.6351 2.22291L14.6149 3.94311C15.0626 4.20864 15.4379 4.58044 15.7077 5.0256L17.4181 3.98908Z" fill="#353535"/>
</svg>
