<svg width="36" height="36" viewBox="0 0 36 36" fill="none" xmlns="http://www.w3.org/2000/svg">
<path d="M33 25.3799V29.8799C33.0017 30.2977 32.9161 30.7112 32.7488 31.0939C32.5814 31.4767 32.336 31.8203 32.0281 32.1027C31.7203 32.3851 31.3569 32.6001 30.9611 32.734C30.5654 32.8678 30.1461 32.9175 29.73 32.8799C25.1143 32.3784 20.6805 30.8011 16.785 28.2749C13.1608 25.9719 10.088 22.8992 7.78502 19.2749C5.24999 15.3617 3.67239 10.9064 3.18002 6.2699C3.14254 5.8551 3.19183 5.43704 3.32477 5.04234C3.45771 4.64763 3.67138 4.28494 3.95217 3.97733C4.23296 3.66973 4.57473 3.42397 4.95571 3.25568C5.33669 3.0874 5.74853 3.00029 6.16502 2.9999H10.665C11.393 2.99274 12.0987 3.25052 12.6507 3.7252C13.2026 4.19988 13.5631 4.85907 13.665 5.5799C13.855 7.02 14.2072 8.43399 14.715 9.7949C14.9168 10.3318 14.9605 10.9153 14.8409 11.4762C14.7212 12.0372 14.4433 12.5521 14.04 12.9599L12.135 14.8649C14.2704 18.6202 17.3797 21.7296 21.135 23.8649L23.04 21.9599C23.4479 21.5566 23.9628 21.2787 24.5237 21.159C25.0846 21.0394 25.6681 21.0831 26.205 21.2849C27.5659 21.7927 28.9799 22.145 30.42 22.3349C31.1487 22.4377 31.8141 22.8047 32.2898 23.3661C32.7655 23.9276 33.0183 24.6443 33 25.3799Z" stroke="#FF3701" stroke-width="2" stroke-linecap="round" stroke-linejoin="round"/>
</svg>
